<svg width="20" height="20" viewBox="0 0 20 20" fill="none" xmlns="http://www.w3.org/2000/svg">
<path d="M13.6384 5.6377C12.0634 5.6377 11.3978 6.38926 10.3009 6.38926C9.17628 6.38926 8.31846 5.64316 6.95362 5.64316C5.61768 5.64316 4.19307 6.45879 3.28839 7.84824C2.01807 9.80762 2.2337 13.4979 4.29112 16.6416C5.02706 17.767 6.00987 19.0291 7.29893 19.0428H7.32237C8.44268 19.0428 8.77549 18.3092 10.3173 18.3006H10.3407C11.8595 18.3006 12.1642 19.0385 13.2798 19.0385H13.3032C14.5923 19.0248 15.6278 17.6264 16.3638 16.5053C16.8935 15.699 17.0903 15.2943 17.4966 14.3822C14.5204 13.2525 14.0423 9.0334 16.9857 7.41582C16.0872 6.29082 14.8247 5.63926 13.6345 5.63926L13.6384 5.6377Z" fill="white"/>
<path d="M13.2924 1.54138C12.3545 1.60508 11.2603 2.2022 10.6194 2.98181C10.0379 3.68835 9.55959 4.73643 9.74717 5.75286H9.8222C10.821 5.75286 11.8433 5.15145 12.4405 4.38082C13.0157 3.64732 13.4518 2.60783 13.2924 1.54138Z" fill="white"/>
</svg>
