<?xml version="1.0" encoding="UTF-8"?>
<svg width="16px" height="16px" viewBox="0 0 16 16" version="1.1" xmlns="http://www.w3.org/2000/svg" xmlns:xlink="http://www.w3.org/1999/xlink">
    <title>style=outline@3x</title>
    <g id="Page-1" stroke="none" stroke-width="1" fill="none" fill-rule="evenodd" stroke-linejoin="round">
        <g id="style=outline" transform="translate(3.0004, 1.5004)" fill-rule="nonzero" stroke="#0071FF" stroke-width="1.00189149">
            <path d="M10.0021782,5.4152421 L10.0021782,11.5025056 C10.0021782,11.900417 9.8441087,12.2820312 9.56274286,12.5633971 C9.28137702,12.8447629 8.89976285,13.0028324 8.50185146,13.0028324 L1.50032673,13.0028324 C1.10241534,13.0028324 0.720801414,12.8447629 0.439435573,12.5633971 C0.158069731,12.2820312 0,11.900417 0,11.5025056 L0,1.50032682 C0,1.10241541 0.158069731,0.720801457 0.439435573,0.439435599 C0.720801414,0.158069741 1.10241534,0 1.50032673,0 L4.58693641,0 C4.85211874,0 5.1064316,0.105385431 5.29396522,0.292876264 L9.70930206,4.70821324 C9.89679289,4.89574688 10.0021782,5.15005975 10.0021782,5.4152421 Z" id="Vector"></path>
            <path d="M5.00136995,0.249868751 L5.00136995,4.00122247 C5.00136995,4.26653471 5.10676502,4.52098024 5.29436909,4.70858432 C5.48197317,4.89618839 5.7364187,5.00158346 6.00173094,5.00158346 L9.75308466,5.00158346" id="Vector" stroke-linecap="round"></path>
            <line x1="2.50068474" y1="7.5017879" x2="7.50248861" y2="7.5017879" id="Vector" stroke-linecap="round"></line>
            <line x1="2.50068474" y1="10.0021598" x2="7.50248861" y2="10.0021598" id="Vector" stroke-linecap="round"></line>
        </g>
    </g>
</svg>